<mxfile host="app.diagrams.net" modified="2020-08-27T13:15:53.563Z" agent="5.0 (Macintosh; Intel Mac OS X 10_15_5) AppleWebKit/537.36 (KHTML, like Gecko) Chrome/84.0.4147.135 Safari/537.36" etag="OOjw8FazVyGcBjyXzNtg" version="13.6.5" type="github" pages="2">
  <diagram id="KyPOi3YeEkolavE5UeDp" name="Entry, Add Workout">
    <mxGraphModel dx="1426" dy="770" grid="1" gridSize="10" guides="1" tooltips="1" connect="1" arrows="1" fold="1" page="1" pageScale="1" pageWidth="850" pageHeight="1100" math="0" shadow="0">
      <root>
        <mxCell id="0" />
        <mxCell id="1" parent="0" />
        <mxCell id="WjqQu0tN3Q2xeVW4dF_L-2" value="" style="rounded=1;whiteSpace=wrap;html=1;" parent="1" vertex="1">
          <mxGeometry x="440" y="20" width="360" height="730" as="geometry" />
        </mxCell>
        <mxCell id="WjqQu0tN3Q2xeVW4dF_L-1" value="" style="rounded=1;whiteSpace=wrap;html=1;arcSize=15;" parent="1" vertex="1">
          <mxGeometry x="40" y="20" width="360" height="730" as="geometry" />
        </mxCell>
        <mxCell id="WjqQu0tN3Q2xeVW4dF_L-9" value="" style="rounded=0;whiteSpace=wrap;html=1;" parent="1" vertex="1">
          <mxGeometry x="45" y="180" width="350" height="600" as="geometry" />
        </mxCell>
        <mxCell id="WjqQu0tN3Q2xeVW4dF_L-10" value="" style="rounded=0;whiteSpace=wrap;html=1;" parent="1" vertex="1">
          <mxGeometry x="445" y="80" width="350" height="600" as="geometry" />
        </mxCell>
        <mxCell id="WjqQu0tN3Q2xeVW4dF_L-8" value="" style="line;strokeWidth=2;html=1;" parent="1" vertex="1">
          <mxGeometry x="42.5" y="140" width="355" height="10" as="geometry" />
        </mxCell>
        <mxCell id="WjqQu0tN3Q2xeVW4dF_L-12" value="" style="line;strokeWidth=2;html=1;" parent="1" vertex="1">
          <mxGeometry x="442.5" y="140" width="355" height="10" as="geometry" />
        </mxCell>
        <mxCell id="WjqQu0tN3Q2xeVW4dF_L-16" value="" style="rounded=0;whiteSpace=wrap;html=1;gradientColor=#0000FF;fillColor=#66B2FF;" parent="1" vertex="1">
          <mxGeometry x="45" y="80" width="350" height="70" as="geometry" />
        </mxCell>
        <mxCell id="WjqQu0tN3Q2xeVW4dF_L-17" value="" style="rounded=0;whiteSpace=wrap;html=1;gradientColor=#0000FF;fillColor=#66B2FF;" parent="1" vertex="1">
          <mxGeometry x="445" y="80" width="350" height="70" as="geometry" />
        </mxCell>
        <mxCell id="WjqQu0tN3Q2xeVW4dF_L-13" value="" style="ellipse;whiteSpace=wrap;html=1;aspect=fixed;" parent="1" vertex="1">
          <mxGeometry x="60" y="90" width="80" height="80" as="geometry" />
        </mxCell>
        <mxCell id="WjqQu0tN3Q2xeVW4dF_L-15" value="" style="verticalLabelPosition=bottom;html=1;verticalAlign=top;align=center;strokeColor=none;fillColor=#00BEF2;shape=mxgraph.azure.user;" parent="1" vertex="1">
          <mxGeometry x="76.25" y="105" width="47.5" height="50" as="geometry" />
        </mxCell>
        <mxCell id="WjqQu0tN3Q2xeVW4dF_L-19" value="" style="ellipse;whiteSpace=wrap;html=1;aspect=fixed;" parent="1" vertex="1">
          <mxGeometry x="460" y="90" width="80" height="80" as="geometry" />
        </mxCell>
        <mxCell id="WjqQu0tN3Q2xeVW4dF_L-20" value="" style="verticalLabelPosition=bottom;html=1;verticalAlign=top;align=center;strokeColor=none;fillColor=#00BEF2;shape=mxgraph.azure.user;" parent="1" vertex="1">
          <mxGeometry x="476.25" y="105" width="47.5" height="50" as="geometry" />
        </mxCell>
        <mxCell id="WjqQu0tN3Q2xeVW4dF_L-21" value="Hi, User" style="text;html=1;strokeColor=none;fillColor=none;align=center;verticalAlign=middle;whiteSpace=wrap;rounded=0;fontSize=33;" parent="1" vertex="1">
          <mxGeometry x="140" y="180" width="160" height="35" as="geometry" />
        </mxCell>
        <mxCell id="WjqQu0tN3Q2xeVW4dF_L-23" value="" style="rounded=0;whiteSpace=wrap;html=1;fillColor=#66B2FF;fontSize=33;gradientColor=#99CCFF;" parent="1" vertex="1">
          <mxGeometry x="68.13" y="230" width="303.75" height="150" as="geometry" />
        </mxCell>
        <mxCell id="WjqQu0tN3Q2xeVW4dF_L-24" value="Last workout:" style="text;html=1;strokeColor=none;fillColor=none;align=center;verticalAlign=middle;whiteSpace=wrap;rounded=0;fontSize=23;" parent="1" vertex="1">
          <mxGeometry x="145.01" y="240" width="150" height="20" as="geometry" />
        </mxCell>
        <mxCell id="WjqQu0tN3Q2xeVW4dF_L-25" value="AMRAP 20" style="text;html=1;strokeColor=none;fillColor=none;align=center;verticalAlign=middle;whiteSpace=wrap;rounded=0;fontSize=17;fontStyle=1" parent="1" vertex="1">
          <mxGeometry x="115.00999999999999" y="280" width="90" height="20" as="geometry" />
        </mxCell>
        <mxCell id="WjqQu0tN3Q2xeVW4dF_L-26" value="10 Pushups&lt;br style=&quot;font-size: 16px;&quot;&gt;15 Situps&lt;br style=&quot;font-size: 16px;&quot;&gt;20 Squats" style="text;html=1;strokeColor=none;fillColor=none;align=center;verticalAlign=middle;whiteSpace=wrap;rounded=0;fontSize=16;" parent="1" vertex="1">
          <mxGeometry x="100" y="300" width="120" height="60" as="geometry" />
        </mxCell>
        <mxCell id="WjqQu0tN3Q2xeVW4dF_L-27" value="12 + 16" style="text;html=1;strokeColor=none;fillColor=none;align=center;verticalAlign=middle;whiteSpace=wrap;rounded=0;fontSize=16;" parent="1" vertex="1">
          <mxGeometry x="260" y="300" width="60" height="20" as="geometry" />
        </mxCell>
        <mxCell id="WjqQu0tN3Q2xeVW4dF_L-28" value="Add Workout&lt;br&gt;" style="text;html=1;strokeColor=none;fillColor=none;align=center;verticalAlign=middle;whiteSpace=wrap;rounded=0;fontSize=16;" parent="1" vertex="1">
          <mxGeometry x="105.00999999999999" y="400" width="100" height="20" as="geometry" />
        </mxCell>
        <mxCell id="WjqQu0tN3Q2xeVW4dF_L-29" value="See Stats&lt;br&gt;" style="text;html=1;strokeColor=none;fillColor=none;align=center;verticalAlign=middle;whiteSpace=wrap;rounded=0;fontSize=16;" parent="1" vertex="1">
          <mxGeometry x="245" y="400" width="90" height="20" as="geometry" />
        </mxCell>
        <mxCell id="WjqQu0tN3Q2xeVW4dF_L-30" value="Add Workout&lt;br style=&quot;font-size: 28px;&quot;&gt;" style="text;html=1;strokeColor=none;fillColor=none;align=center;verticalAlign=middle;whiteSpace=wrap;rounded=0;fontSize=28;" parent="1" vertex="1">
          <mxGeometry x="525" y="187.5" width="190" height="20" as="geometry" />
        </mxCell>
        <mxCell id="WjqQu0tN3Q2xeVW4dF_L-31" value="" style="verticalLabelPosition=bottom;verticalAlign=top;html=1;shape=mxgraph.basic.three_corner_round_rect;dx=6;fillColor=#66B2FF;gradientColor=#99CCFF;fontSize=28;" parent="1" vertex="1">
          <mxGeometry x="495" y="240" width="250" height="30" as="geometry" />
        </mxCell>
        <mxCell id="WjqQu0tN3Q2xeVW4dF_L-32" value="Muscle Group" style="text;html=1;strokeColor=none;fillColor=none;align=center;verticalAlign=middle;whiteSpace=wrap;rounded=0;fontSize=22;" parent="1" vertex="1">
          <mxGeometry x="510" y="245" width="170" height="20" as="geometry" />
        </mxCell>
        <mxCell id="WjqQu0tN3Q2xeVW4dF_L-33" value="" style="triangle;whiteSpace=wrap;html=1;fontSize=22;rotation=90;fillColor=#0A1219;" parent="1" vertex="1">
          <mxGeometry x="705" y="245" width="10" height="20" as="geometry" />
        </mxCell>
        <mxCell id="WjqQu0tN3Q2xeVW4dF_L-36" value="Legs" style="text;html=1;strokeColor=none;fillColor=none;align=center;verticalAlign=middle;whiteSpace=wrap;rounded=0;fontSize=22;fontColor=#D6D6D6;" parent="1" vertex="1">
          <mxGeometry x="535" y="340" width="170" height="20" as="geometry" />
        </mxCell>
        <mxCell id="WjqQu0tN3Q2xeVW4dF_L-37" value="Back" style="text;html=1;strokeColor=none;fillColor=none;align=center;verticalAlign=middle;whiteSpace=wrap;rounded=0;fontSize=22;fontColor=#D6D6D6;" parent="1" vertex="1">
          <mxGeometry x="535" y="370" width="170" height="20" as="geometry" />
        </mxCell>
        <mxCell id="WjqQu0tN3Q2xeVW4dF_L-38" value="Chest" style="text;html=1;strokeColor=none;fillColor=none;align=center;verticalAlign=middle;whiteSpace=wrap;rounded=0;fontSize=22;fontColor=#D6D6D6;" parent="1" vertex="1">
          <mxGeometry x="535" y="400" width="170" height="20" as="geometry" />
        </mxCell>
        <mxCell id="WjqQu0tN3Q2xeVW4dF_L-39" value="Arms" style="text;html=1;strokeColor=none;fillColor=none;align=center;verticalAlign=middle;whiteSpace=wrap;rounded=0;fontSize=22;fontColor=#D6D6D6;" parent="1" vertex="1">
          <mxGeometry x="535" y="310" width="170" height="20" as="geometry" />
        </mxCell>
        <mxCell id="WjqQu0tN3Q2xeVW4dF_L-40" value="Abs" style="text;html=1;strokeColor=none;fillColor=none;align=center;verticalAlign=middle;whiteSpace=wrap;rounded=0;fontSize=22;fontColor=#D6D6D6;" parent="1" vertex="1">
          <mxGeometry x="535" y="280" width="170" height="20" as="geometry" />
        </mxCell>
        <mxCell id="WjqQu0tN3Q2xeVW4dF_L-45" value="" style="verticalLabelPosition=bottom;verticalAlign=top;html=1;shape=mxgraph.basic.three_corner_round_rect;dx=6;fillColor=#66B2FF;gradientColor=#99CCFF;fontSize=28;" parent="1" vertex="1">
          <mxGeometry x="500" y="440" width="250" height="30" as="geometry" />
        </mxCell>
        <mxCell id="WjqQu0tN3Q2xeVW4dF_L-46" value="Movement" style="text;html=1;strokeColor=none;fillColor=none;align=center;verticalAlign=middle;whiteSpace=wrap;rounded=0;fontSize=22;" parent="1" vertex="1">
          <mxGeometry x="515" y="445" width="170" height="20" as="geometry" />
        </mxCell>
        <mxCell id="WjqQu0tN3Q2xeVW4dF_L-47" value="" style="triangle;whiteSpace=wrap;html=1;fontSize=22;rotation=90;fillColor=#0A1219;" parent="1" vertex="1">
          <mxGeometry x="710" y="445" width="10" height="20" as="geometry" />
        </mxCell>
        <mxCell id="WjqQu0tN3Q2xeVW4dF_L-48" value="V-ups" style="text;html=1;strokeColor=none;fillColor=none;align=center;verticalAlign=middle;whiteSpace=wrap;rounded=0;fontSize=22;fontColor=#D6D6D6;" parent="1" vertex="1">
          <mxGeometry x="540" y="540" width="170" height="20" as="geometry" />
        </mxCell>
        <mxCell id="WjqQu0tN3Q2xeVW4dF_L-49" value="Shoulder Taps" style="text;html=1;strokeColor=none;fillColor=none;align=center;verticalAlign=middle;whiteSpace=wrap;rounded=0;fontSize=22;fontColor=#D6D6D6;" parent="1" vertex="1">
          <mxGeometry x="540" y="570" width="170" height="20" as="geometry" />
        </mxCell>
        <mxCell id="WjqQu0tN3Q2xeVW4dF_L-50" value="Russian Twists" style="text;html=1;strokeColor=none;fillColor=none;align=center;verticalAlign=middle;whiteSpace=wrap;rounded=0;fontSize=22;fontColor=#D6D6D6;" parent="1" vertex="1">
          <mxGeometry x="540" y="600" width="170" height="20" as="geometry" />
        </mxCell>
        <mxCell id="WjqQu0tN3Q2xeVW4dF_L-51" value="Plank" style="text;html=1;strokeColor=none;fillColor=none;align=center;verticalAlign=middle;whiteSpace=wrap;rounded=0;fontSize=22;fontColor=#D6D6D6;" parent="1" vertex="1">
          <mxGeometry x="540" y="510" width="170" height="20" as="geometry" />
        </mxCell>
        <mxCell id="WjqQu0tN3Q2xeVW4dF_L-52" value="Situps" style="text;html=1;strokeColor=none;fillColor=none;align=center;verticalAlign=middle;whiteSpace=wrap;rounded=0;fontSize=22;fontColor=#D6D6D6;" parent="1" vertex="1">
          <mxGeometry x="540" y="480" width="170" height="20" as="geometry" />
        </mxCell>
        <mxCell id="hOjcE8Som80fzLRIyZZL-1" value="" style="whiteSpace=wrap;html=1;aspect=fixed;" vertex="1" parent="1">
          <mxGeometry x="500" y="609" width="50" height="50" as="geometry" />
        </mxCell>
        <mxCell id="hOjcE8Som80fzLRIyZZL-2" value="" style="whiteSpace=wrap;html=1;aspect=fixed;" vertex="1" parent="1">
          <mxGeometry x="600" y="609" width="50" height="50" as="geometry" />
        </mxCell>
        <mxCell id="hOjcE8Som80fzLRIyZZL-3" value="" style="whiteSpace=wrap;html=1;aspect=fixed;" vertex="1" parent="1">
          <mxGeometry x="690" y="610" width="50" height="50" as="geometry" />
        </mxCell>
        <mxCell id="hOjcE8Som80fzLRIyZZL-4" value="" style="shape=image;html=1;verticalAlign=top;verticalLabelPosition=bottom;labelBackgroundColor=#ffffff;imageAspect=0;aspect=fixed;image=https://cdn2.iconfinder.com/data/icons/flat-ui-icons-24-px/24/plus-24-128.png;rotation=45;" vertex="1" parent="1">
          <mxGeometry x="560" y="620" width="28" height="28" as="geometry" />
        </mxCell>
        <mxCell id="hOjcE8Som80fzLRIyZZL-5" value="sets" style="text;html=1;strokeColor=none;fillColor=none;align=center;verticalAlign=middle;whiteSpace=wrap;rounded=0;" vertex="1" parent="1">
          <mxGeometry x="505" y="620" width="40" height="20" as="geometry" />
        </mxCell>
        <mxCell id="hOjcE8Som80fzLRIyZZL-6" value="reps" style="text;html=1;strokeColor=none;fillColor=none;align=center;verticalAlign=middle;whiteSpace=wrap;rounded=0;" vertex="1" parent="1">
          <mxGeometry x="605" y="624" width="40" height="20" as="geometry" />
        </mxCell>
        <mxCell id="hOjcE8Som80fzLRIyZZL-7" value="weight" style="text;html=1;strokeColor=none;fillColor=none;align=center;verticalAlign=middle;whiteSpace=wrap;rounded=0;" vertex="1" parent="1">
          <mxGeometry x="695" y="624" width="40" height="20" as="geometry" />
        </mxCell>
        <mxCell id="hOjcE8Som80fzLRIyZZL-8" value="" style="shape=image;html=1;verticalAlign=top;verticalLabelPosition=bottom;labelBackgroundColor=#ffffff;imageAspect=0;aspect=fixed;image=https://cdn2.iconfinder.com/data/icons/flat-ui-icons-24-px/24/plus-24-128.png;rotation=45;" vertex="1" parent="1">
          <mxGeometry x="657" y="621" width="28" height="28" as="geometry" />
        </mxCell>
      </root>
    </mxGraphModel>
  </diagram>
  <diagram id="lUI_o1l_l3ktIv_HNoKZ" name="Today&#39;s Workout, Stats">
    
    <mxGraphModel dx="1358" dy="744" grid="1" gridSize="10" guides="1" tooltips="1" connect="1" arrows="1" fold="1" page="1" pageScale="1" pageWidth="850" pageHeight="1100" math="0" shadow="0">
      
      <root>
        
        <mxCell id="zfeHL6yritqO-PtCXMWo-0" />
        
        <mxCell id="zfeHL6yritqO-PtCXMWo-1" parent="zfeHL6yritqO-PtCXMWo-0" />
        
        <mxCell id="zfeHL6yritqO-PtCXMWo-2" value="" style="rounded=1;whiteSpace=wrap;html=1;" vertex="1" parent="zfeHL6yritqO-PtCXMWo-1">
          
          <mxGeometry x="440" y="20" width="360" height="730" as="geometry" />
          
        </mxCell>
        
        <mxCell id="zfeHL6yritqO-PtCXMWo-3" value="" style="rounded=1;whiteSpace=wrap;html=1;arcSize=15;" vertex="1" parent="zfeHL6yritqO-PtCXMWo-1">
          
          <mxGeometry x="40" y="20" width="360" height="730" as="geometry" />
          
        </mxCell>
        
        <mxCell id="zfeHL6yritqO-PtCXMWo-4" value="" style="rounded=0;whiteSpace=wrap;html=1;" vertex="1" parent="zfeHL6yritqO-PtCXMWo-1">
          
          <mxGeometry x="45" y="80" width="350" height="600" as="geometry" />
          
        </mxCell>
        
        <mxCell id="zfeHL6yritqO-PtCXMWo-5" value="" style="rounded=0;whiteSpace=wrap;html=1;" vertex="1" parent="zfeHL6yritqO-PtCXMWo-1">
          
          <mxGeometry x="445" y="80" width="350" height="600" as="geometry" />
          
        </mxCell>
        
        <mxCell id="zfeHL6yritqO-PtCXMWo-6" value="" style="line;strokeWidth=2;html=1;" vertex="1" parent="zfeHL6yritqO-PtCXMWo-1">
          
          <mxGeometry x="42.5" y="140" width="355" height="10" as="geometry" />
          
        </mxCell>
        
        <mxCell id="zfeHL6yritqO-PtCXMWo-7" value="" style="line;strokeWidth=2;html=1;" vertex="1" parent="zfeHL6yritqO-PtCXMWo-1">
          
          <mxGeometry x="442.5" y="140" width="355" height="10" as="geometry" />
          
        </mxCell>
        
        <mxCell id="zfeHL6yritqO-PtCXMWo-8" value="" style="rounded=0;whiteSpace=wrap;html=1;gradientColor=#0000FF;fillColor=#66B2FF;" vertex="1" parent="zfeHL6yritqO-PtCXMWo-1">
          
          <mxGeometry x="45" y="80" width="350" height="70" as="geometry" />
          
        </mxCell>
        
        <mxCell id="zfeHL6yritqO-PtCXMWo-9" value="" style="rounded=0;whiteSpace=wrap;html=1;gradientColor=#0000FF;fillColor=#66B2FF;" vertex="1" parent="zfeHL6yritqO-PtCXMWo-1">
          
          <mxGeometry x="445" y="80" width="350" height="70" as="geometry" />
          
        </mxCell>
        
        <mxCell id="zfeHL6yritqO-PtCXMWo-10" value="" style="ellipse;whiteSpace=wrap;html=1;aspect=fixed;" vertex="1" parent="zfeHL6yritqO-PtCXMWo-1">
          
          <mxGeometry x="60" y="90" width="80" height="80" as="geometry" />
          
        </mxCell>
        
        <mxCell id="zfeHL6yritqO-PtCXMWo-11" value="" style="verticalLabelPosition=bottom;html=1;verticalAlign=top;align=center;strokeColor=none;fillColor=#00BEF2;shape=mxgraph.azure.user;" vertex="1" parent="zfeHL6yritqO-PtCXMWo-1">
          
          <mxGeometry x="76.25" y="105" width="47.5" height="50" as="geometry" />
          
        </mxCell>
        
        <mxCell id="zfeHL6yritqO-PtCXMWo-12" value="" style="ellipse;whiteSpace=wrap;html=1;aspect=fixed;" vertex="1" parent="zfeHL6yritqO-PtCXMWo-1">
          
          <mxGeometry x="460" y="90" width="80" height="80" as="geometry" />
          
        </mxCell>
        
        <mxCell id="zfeHL6yritqO-PtCXMWo-13" value="" style="verticalLabelPosition=bottom;html=1;verticalAlign=top;align=center;strokeColor=none;fillColor=#00BEF2;shape=mxgraph.azure.user;" vertex="1" parent="zfeHL6yritqO-PtCXMWo-1">
          
          <mxGeometry x="476.25" y="105" width="47.5" height="50" as="geometry" />
          
        </mxCell>
        
        <mxCell id="zfeHL6yritqO-PtCXMWo-15" value="" style="rounded=0;whiteSpace=wrap;html=1;fillColor=#66B2FF;fontSize=33;gradientColor=#99CCFF;" vertex="1" parent="zfeHL6yritqO-PtCXMWo-1">
          
          <mxGeometry x="68.13" y="230" width="303.75" height="280" as="geometry" />
          
        </mxCell>
        
        <mxCell id="zfeHL6yritqO-PtCXMWo-22" value="Workout Stats" style="text;html=1;strokeColor=none;fillColor=none;align=center;verticalAlign=middle;whiteSpace=wrap;rounded=0;fontSize=28;" vertex="1" parent="zfeHL6yritqO-PtCXMWo-1">
          
          <mxGeometry x="525" y="190" width="190" height="20" as="geometry" />
          
        </mxCell>
        
        <mxCell id="HTJily34jDrME0Ey3kwM-0" value="" style="shape=image;html=1;verticalAlign=top;verticalLabelPosition=bottom;labelBackgroundColor=#ffffff;imageAspect=0;aspect=fixed;image=https://cdn1.iconfinder.com/data/icons/free-education-set/33/curvedchart-128.png;fillColor=#0A1219;gradientColor=none;fontSize=22;fontColor=#D6D6D6;" vertex="1" parent="zfeHL6yritqO-PtCXMWo-1">
          
          <mxGeometry x="490" y="230" width="258" height="258" as="geometry" />
          
        </mxCell>
        
        <mxCell id="HTJily34jDrME0Ey3kwM-1" value="Speed" style="text;html=1;strokeColor=none;fillColor=none;align=center;verticalAlign=middle;whiteSpace=wrap;rounded=0;fontSize=22;fontColor=#D6D6D6;" vertex="1" parent="zfeHL6yritqO-PtCXMWo-1">
          
          <mxGeometry x="580" y="510" width="100" height="20" as="geometry" />
          
        </mxCell>
        
        <mxCell id="HTJily34jDrME0Ey3kwM-2" style="edgeStyle=orthogonalEdgeStyle;rounded=0;orthogonalLoop=1;jettySize=auto;html=1;exitX=0.5;exitY=1;exitDx=0;exitDy=0;fontSize=22;fontColor=#D6D6D6;" edge="1" parent="zfeHL6yritqO-PtCXMWo-1" source="HTJily34jDrME0Ey3kwM-1" target="HTJily34jDrME0Ey3kwM-1">
          
          <mxGeometry relative="1" as="geometry" />
          
        </mxCell>
        
        <mxCell id="HTJily34jDrME0Ey3kwM-3" value="Time" style="text;html=1;strokeColor=none;fillColor=none;align=center;verticalAlign=middle;whiteSpace=wrap;rounded=0;fontSize=22;fontColor=#D6D6D6;direction=east;rotation=270;" vertex="1" parent="zfeHL6yritqO-PtCXMWo-1">
          
          <mxGeometry x="450" y="349" width="40" height="20" as="geometry" />
          
        </mxCell>
        
        <mxCell id="HTJily34jDrME0Ey3kwM-5" value="Goals" style="text;html=1;strokeColor=none;fillColor=none;align=center;verticalAlign=middle;whiteSpace=wrap;rounded=0;fontSize=30;" vertex="1" parent="zfeHL6yritqO-PtCXMWo-1">
          
          <mxGeometry x="185" y="190" width="70" height="20" as="geometry" />
          
        </mxCell>
        
        <mxCell id="HTJily34jDrME0Ey3kwM-6" value="Baseline Stats" style="text;html=1;strokeColor=none;fillColor=none;align=center;verticalAlign=middle;whiteSpace=wrap;rounded=0;fontSize=24;fontColor=#0A1219;" vertex="1" parent="zfeHL6yritqO-PtCXMWo-1">
          
          <mxGeometry x="105.01" y="250" width="230" height="20" as="geometry" />
          
        </mxCell>
        
        <mxCell id="HTJily34jDrME0Ey3kwM-7" value="1 mile run: 8:42" style="text;html=1;strokeColor=none;fillColor=none;align=center;verticalAlign=middle;whiteSpace=wrap;rounded=0;fontSize=24;fontColor=#0A1219;" vertex="1" parent="zfeHL6yritqO-PtCXMWo-1">
          
          <mxGeometry x="105" y="290" width="230" height="20" as="geometry" />
          
        </mxCell>
        
        <mxCell id="HTJily34jDrME0Ey3kwM-8" value="2k erg: 7:56" style="text;html=1;strokeColor=none;fillColor=none;align=center;verticalAlign=middle;whiteSpace=wrap;rounded=0;fontSize=24;fontColor=#0A1219;" vertex="1" parent="zfeHL6yritqO-PtCXMWo-1">
          
          <mxGeometry x="105.01" y="329" width="230" height="20" as="geometry" />
          
        </mxCell>
        
        <mxCell id="HTJily34jDrME0Ey3kwM-9" value="Squats to failure: 73" style="text;html=1;strokeColor=none;fillColor=none;align=center;verticalAlign=middle;whiteSpace=wrap;rounded=0;fontSize=24;fontColor=#0A1219;" vertex="1" parent="zfeHL6yritqO-PtCXMWo-1">
          
          <mxGeometry x="105" y="370" width="230" height="20" as="geometry" />
          
        </mxCell>
        
        <mxCell id="HTJily34jDrME0Ey3kwM-10" value="Pullups to failure: 6" style="text;html=1;strokeColor=none;fillColor=none;align=center;verticalAlign=middle;whiteSpace=wrap;rounded=0;fontSize=24;fontColor=#0A1219;" vertex="1" parent="zfeHL6yritqO-PtCXMWo-1">
          
          <mxGeometry x="105" y="410" width="230" height="20" as="geometry" />
          
        </mxCell>
        
        <mxCell id="HTJily34jDrME0Ey3kwM-11" value="Add stat" style="text;html=1;strokeColor=none;fillColor=none;align=center;verticalAlign=middle;whiteSpace=wrap;rounded=0;fontSize=24;fontColor=#808080;" vertex="1" parent="zfeHL6yritqO-PtCXMWo-1">
          
          <mxGeometry x="165.01" y="460" width="110" height="20" as="geometry" />
          
        </mxCell>
        
      </root>
      
    </mxGraphModel>
    
  </diagram>
</mxfile>
